# Blender v2.79 (sub 0) OBJ File: 'camel.blend'
# www.blender.org
mtllib camel.mtl
o Camel_Plane
v 0.384935 0.303041 1.457534
v 0.580230 -0.355219 1.319527
v 0.307146 1.252743 0.558150
v 0.580230 -0.748582 0.434526
v 0.302557 0.832062 -0.306280
v 0.335527 -0.797982 -0.589486
v 0.452028 -0.097247 -0.458435
v 0.362298 1.039851 -1.337223
v 0.349333 -0.389604 -1.506377
v 0.271660 0.565131 -1.824961
v 0.335527 -0.638280 -2.001329
v 0.262959 0.315779 -2.063704
v 0.281842 -0.248179 -2.132830
v 0.282072 0.898604 1.993628
v 0.403926 -0.429032 2.112091
v 0.307146 1.107729 2.370807
v 0.496750 -0.165141 2.612347
v 0.307146 0.892160 2.790819
v 0.332049 0.380043 2.921696
v 0.393520 0.893068 3.288076
v 0.320098 0.526870 3.421641
v 0.143893 1.666501 -1.326473
v 0.137424 0.611444 -1.885417
v 0.222343 0.966713 3.354903
v 0.196752 1.089571 2.793215
v 0.154551 -0.853720 -2.023524
v 0.174682 -0.681692 -1.482357
v 0.159515 0.344295 2.868896
v 0.139608 0.505840 3.544007
v 0.186109 -1.135528 -0.582642
v 0.169731 -1.012122 0.389333
v 0.190843 1.264154 2.349056
v 0.146628 1.145914 1.986106
v 0.139045 0.403450 -2.179060
v 0.100375 -0.226566 -2.164130
v 0.181500 1.760426 0.541218
v 0.170997 1.036189 -0.319376
v 0.208905 -0.856525 2.178107
v 0.322104 -0.318860 2.753843
v 0.175587 0.440857 1.471289
v 0.175587 -0.662935 1.242732
v 0.472454 -1.047238 1.075815
v 0.472454 -1.185737 0.633778
v 0.196012 -1.185737 0.633778
v 0.196012 -1.047238 1.075815
v 0.332801 -2.723579 0.812241
v 0.332801 -2.743197 0.733985
v 0.214276 -2.743197 0.733985
v 0.214276 -2.723579 0.812241
v 0.452029 -2.952125 1.228884
v 0.452029 -2.929993 0.760854
v 0.175587 -2.929993 0.760854
v 0.175587 -2.952125 1.228884
v 0.342553 -2.122095 -1.681169
v 0.347243 -2.183056 -1.799945
v 0.158061 -2.116441 -1.686425
v 0.162751 -2.177402 -1.805202
v 0.359076 -2.830913 -1.472660
v 0.358209 -2.834733 -1.538016
v 0.246285 -2.830913 -1.472660
v 0.245417 -2.834733 -1.538016
v 0.452029 -2.987982 -1.127413
v 0.452029 -2.980120 -1.672221
v 0.175587 -2.987982 -1.127413
v 0.175587 -2.980120 -1.672221
v 0.452028 -0.111039 1.357010
v 0.614820 0.107301 0.504717
v 0.519991 -0.015547 -0.425707
v 0.447766 0.313953 -1.320470
v 0.452028 -0.161857 -2.005842
v 0.313018 0.011435 -2.225977
v 0.439821 0.069468 1.941693
v 0.491002 0.334224 2.444727
v 0.374240 0.641201 2.853770
v 0.374240 0.629225 3.415386
v 0.234387 0.731718 3.701058
v 0.138028 0.125924 -2.304088
v 0.338498 -1.845279 0.909677
v 0.176607 -1.845279 0.909677
v 0.357347 -1.858881 0.735544
v 0.195456 -1.858881 0.735544
v 0.313900 -2.141508 0.876712
v 0.332749 -2.143039 0.740357
v 0.172283 -2.141508 0.876712
v 0.191132 -2.143039 0.740357
v 0.158372 -1.996179 0.909527
v 0.177221 -2.013474 0.720876
v 0.341509 -1.996179 0.909527
v 0.360358 -2.013474 0.720876
v 0.378966 0.320359 1.641437
v 0.538082 -0.620096 1.599674
v 0.225612 -0.923099 1.506260
v 0.204875 0.526215 1.645096
v 0.490131 -0.248159 1.558947
v 0.490297 -0.781191 -0.016289
v 0.311172 1.094980 0.065188
v 0.142444 1.660816 0.112819
v 0.166800 -1.160119 -0.052200
v 0.623960 0.086409 -0.044412
v 0.423450 -0.217866 -0.515048
v 0.322436 1.042550 -0.682869
v 0.339084 -0.688519 -0.835058
v 0.196950 -1.011793 -0.873976
v 0.190007 1.123505 -0.599977
v 0.475404 0.151617 -0.817552
v 0.415234 -0.482149 -1.097764
v 0.182369 1.697940 -0.978692
v 0.403871 1.104165 -0.941014
v 0.259489 -0.837561 -1.165032
v 0.543387 0.237869 -1.089204
v 0.340304 -1.063123 -1.450655
v 0.141178 -1.084780 -1.480490
v 0.340124 -1.243374 -1.847902
v 0.130490 -1.266190 -1.858250
v 0.357694 -2.027899 -1.694278
v 0.357485 -2.010451 -1.905915
v 0.139229 -2.020736 -1.906522
v 0.141470 -2.036724 -1.698595
v 0.136509 0.139030 -2.501666
v 0.134670 -0.132469 -2.454147
v -0.384935 0.303041 1.457534
v -0.580230 -0.355219 1.319527
v -0.307146 1.252743 0.558150
v -0.580230 -0.748582 0.434526
v -0.302557 0.832062 -0.306280
v -0.335527 -0.797982 -0.589486
v -0.452028 -0.097247 -0.458435
v -0.362298 1.039851 -1.337223
v -0.349333 -0.389604 -1.506377
v -0.271660 0.565131 -1.824961
v -0.335527 -0.638280 -2.001329
v -0.262959 0.315779 -2.063704
v -0.281842 -0.248179 -2.132830
v -0.282072 0.898604 1.993628
v -0.403926 -0.429032 2.112091
v -0.307146 1.107729 2.370807
v -0.496750 -0.165141 2.612347
v -0.307146 0.892160 2.790819
v -0.332049 0.380043 2.921696
v -0.393520 0.893068 3.288076
v -0.320098 0.526870 3.421641
v 0.000000 1.903234 0.513343
v 0.000000 0.474426 1.452279
v 0.000000 -0.793560 1.192944
v 0.000000 -1.086266 0.296026
v 0.000000 -1.190193 -0.595604
v 0.000000 1.088810 -0.319334
v 0.000000 -0.759087 -1.442827
v 0.000000 1.792308 -1.346583
v 0.000000 -0.627079 -2.128706
v 0.000000 0.726664 -1.851686
v 0.000000 -0.200278 -2.185723
v 0.000000 0.455492 -2.225756
v 0.000000 1.212509 1.974224
v 0.000000 -0.981332 2.178035
v 0.000000 1.378097 2.334838
v 0.000000 -0.442221 2.838427
v 0.000000 1.168748 2.841321
v 0.000000 0.281368 2.902688
v 0.000000 1.041620 3.417644
v 0.000000 0.574172 3.743392
v -0.143893 1.666501 -1.326473
v -0.137424 0.611444 -1.885417
v -0.222343 0.966713 3.354903
v -0.196752 1.089571 2.793215
v -0.154551 -0.853720 -2.023524
v -0.174682 -0.681692 -1.482357
v -0.159515 0.344295 2.868896
v -0.139608 0.505840 3.544007
v -0.186109 -1.135528 -0.582642
v -0.169731 -1.012122 0.389333
v -0.190843 1.264154 2.349056
v -0.146628 1.145914 1.986106
v -0.139045 0.403450 -2.179060
v -0.100375 -0.226566 -2.164130
v -0.181500 1.760426 0.541218
v -0.170997 1.036189 -0.319376
v -0.208905 -0.856525 2.178107
v -0.322104 -0.318860 2.753843
v -0.175587 0.440857 1.471289
v -0.175587 -0.662935 1.242732
v -0.472454 -1.047238 1.075815
v -0.472454 -1.185737 0.633778
v -0.196012 -1.185737 0.633778
v -0.196012 -1.047238 1.075815
v -0.332801 -2.723579 0.812241
v -0.332801 -2.743197 0.733985
v -0.214276 -2.743197 0.733985
v -0.214276 -2.723579 0.812241
v -0.452029 -2.952125 1.228884
v -0.452029 -2.929993 0.760854
v -0.175587 -2.929993 0.760854
v -0.175587 -2.952125 1.228884
v -0.342553 -2.122095 -1.681169
v -0.347243 -2.183056 -1.799945
v -0.158061 -2.116441 -1.686425
v -0.162751 -2.177402 -1.805202
v -0.359076 -2.830913 -1.472660
v -0.358209 -2.834733 -1.538016
v -0.246285 -2.830913 -1.472660
v -0.245417 -2.834733 -1.538016
v -0.452029 -2.987982 -1.127413
v -0.452029 -2.980120 -1.672221
v -0.175587 -2.987982 -1.127413
v -0.175587 -2.980120 -1.672221
v -0.452028 -0.111039 1.357010
v -0.614820 0.107301 0.504717
v -0.519991 -0.015547 -0.425707
v -0.447766 0.313953 -1.320470
v -0.452028 -0.161857 -2.005842
v -0.313018 0.011435 -2.225977
v -0.439821 0.069468 1.941693
v -0.491002 0.334224 2.444727
v -0.374240 0.641201 2.853770
v -0.374240 0.629225 3.415386
v 0.000000 0.016421 -2.319941
v 0.000000 0.774308 3.818916
v -0.234387 0.731718 3.701058
v -0.138028 0.125924 -2.304088
v -0.338498 -1.845279 0.909677
v -0.176607 -1.845279 0.909677
v -0.357347 -1.858881 0.735544
v -0.195456 -1.858881 0.735544
v -0.313900 -2.141508 0.876712
v -0.332749 -2.143039 0.740357
v -0.172283 -2.141508 0.876712
v -0.191132 -2.143039 0.740357
v -0.158372 -1.996179 0.909527
v -0.177221 -2.013474 0.720876
v -0.341509 -1.996179 0.909527
v -0.360358 -2.013474 0.720876
v -0.378966 0.320359 1.641437
v -0.538082 -0.620096 1.599674
v 0.000000 0.589140 1.625880
v 0.000000 -1.024539 1.496227
v -0.225612 -0.923099 1.506260
v -0.204875 0.526215 1.645096
v -0.490131 -0.248159 1.558947
v -0.490297 -0.781191 -0.016289
v -0.311172 1.094980 0.065188
v 0.000000 -1.196259 -0.039266
v 0.000000 1.844270 0.214671
v -0.142444 1.660816 0.112819
v -0.166800 -1.160119 -0.052200
v -0.623960 0.086409 -0.044412
v -0.423450 -0.217866 -0.515048
v -0.322436 1.042550 -0.682869
v -0.339084 -0.688519 -0.835058
v 0.000000 1.173403 -0.604744
v 0.000000 -1.058151 -0.938791
v -0.196950 -1.011793 -0.873976
v -0.190007 1.123505 -0.599977
v -0.475404 0.151617 -0.817552
v -0.415234 -0.482149 -1.097764
v 0.000000 -0.892584 -1.208497
v -0.182369 1.697940 -0.978692
v -0.403871 1.104165 -0.941014
v 0.000000 1.820088 -0.979655
v -0.259489 -0.837561 -1.165032
v -0.543387 0.237869 -1.089204
v -0.340304 -1.063123 -1.450655
v -0.141178 -1.084780 -1.480490
v -0.340124 -1.243374 -1.847902
v -0.130490 -1.266190 -1.858250
v -0.357694 -2.027899 -1.694278
v -0.357485 -2.010451 -1.905915
v -0.139229 -2.020736 -1.906522
v -0.141470 -2.036724 -1.698595
v 0.000000 -0.300392 -2.421446
v 0.000000 0.258250 -2.465679
v -0.136509 0.139030 -2.501666
v -0.134670 -0.132469 -2.454147
v 0.000000 -0.094894 -2.544724
v 0.000000 0.112653 -2.573425
v 0.000000 -0.153871 -2.613983
v 0.000000 -0.644348 -2.526706
vn -0.9934 -0.0762 -0.0854
vn -0.9569 0.1649 0.2389
vn -0.9555 0.1150 0.2715
vn -0.9745 0.1947 -0.1116
vn -0.6538 0.2269 0.7219
vn -0.9806 -0.1923 0.0380
vn -0.9604 -0.2021 0.1920
vn -0.9622 -0.2501 -0.1079
vn -0.9948 -0.0626 0.0805
vn -0.3221 -0.4238 0.8466
vn -0.3827 -0.9041 -0.1900
vn 0.4186 0.9074 -0.0365
vn -0.2041 0.9370 -0.2835
vn -0.2491 0.9682 0.0229
vn -0.4630 -0.8152 0.3481
vn -0.4504 -0.6892 0.5676
vn -0.6744 -0.7131 0.1917
vn -0.4199 0.7030 -0.5740
vn -0.3076 0.1601 0.9379
vn -0.1667 -0.5542 -0.8155
vn -0.4608 -0.7216 0.5167
vn -0.2580 -0.9220 -0.2887
vn -0.4437 -0.8319 -0.3332
vn -0.2600 0.8381 0.4796
vn -0.2711 0.0921 -0.9581
vn -0.3832 0.8676 -0.3169
vn -0.2507 -0.4784 0.8416
vn -0.4684 0.5014 -0.7275
vn -0.4649 0.6484 0.6029
vn -0.6121 0.5644 0.5539
vn -0.6049 0.5423 -0.5831
vn -0.6531 -0.4409 0.6157
vn -0.9789 0.1899 -0.0761
vn -0.3538 0.2232 -0.9083
vn -0.8528 0.4138 0.3187
vn -0.8125 -0.5334 -0.2353
vn -0.7334 -0.6018 -0.3161
vn -0.6427 -0.5769 0.5041
vn -0.7803 -0.4073 -0.4746
vn -0.2585 0.2240 0.9397
vn -0.8577 0.4772 -0.1913
vn -0.9577 -0.2658 0.1107
vn -0.6688 -0.3737 0.6427
vn -0.8205 -0.4904 0.2937
vn -0.8319 0.5448 0.1060
vn -0.2021 0.9459 -0.2537
vn 0.0248 -0.1436 -0.9893
vn -0.6947 -0.7192 -0.0094
vn -0.7416 -0.3461 0.5747
vn 0.0000 0.1101 -0.9939
vn -0.2759 0.5888 0.7598
vn 0.9963 0.0787 -0.0341
vn -0.0576 0.3599 -0.9312
vn 0.9829 -0.1840 -0.0008
vn -0.9962 -0.0108 -0.0864
vn 0.9953 0.0499 0.0825
vn 0.0000 -0.0106 0.9999
vn 0.0000 0.9989 0.0472
vn 0.0000 0.1424 0.9898
vn 0.0000 -0.8768 -0.4809
vn -0.8662 -0.4997 -0.0023
vn -0.0093 0.3742 0.9273
vn -0.9962 0.0838 -0.0245
vn -0.0184 0.5321 0.8465
vn 0.9869 0.1604 -0.0147
vn 0.9058 -0.4237 -0.0041
vn -0.9996 -0.0244 -0.0122
vn 0.9930 0.1165 -0.0204
vn 0.0116 -0.2836 -0.9589
vn 0.0000 0.9999 0.0144
vn 0.0000 -0.9102 -0.4141
vn 0.0000 -0.6783 0.7348
vn -0.8501 -0.5266 -0.0023
vn -0.1424 0.3662 0.9196
vn -0.7725 -0.4312 -0.4661
vn -0.3974 -0.7646 -0.5074
vn -0.2850 0.4312 0.8561
vn -0.9679 0.2478 -0.0424
vn -0.9489 -0.0510 -0.3113
vn -0.9920 0.0664 0.1074
vn -0.9837 -0.0552 -0.1713
vn -0.8885 -0.3108 0.3375
vn -0.9517 -0.2004 0.2325
vn -0.9659 -0.1537 0.2083
vn -0.9135 -0.2955 0.2798
vn -0.9591 -0.2119 -0.1879
vn 0.0000 0.1495 0.9888
vn 0.9993 -0.0151 0.0343
vn -0.9829 0.1695 -0.0719
vn 0.0000 0.2038 -0.9790
vn 0.0000 0.1487 0.9889
vn 0.9895 0.0948 0.1093
vn -0.9716 0.2012 -0.1244
vn 0.0000 0.2203 -0.9754
vn 0.0000 0.0010 -1.0000
vn -0.9947 -0.0147 -0.1021
vn 0.9859 -0.1232 0.1129
vn 0.0000 -0.0945 0.9955
vn -0.9350 -0.2685 -0.2318
vn -0.6399 -0.7266 0.2503
vn -0.7965 0.5617 -0.2237
vn -0.4590 0.8850 -0.0774
vn -0.2598 -0.8272 0.4983
vn -0.9828 -0.1830 0.0250
vn -0.9596 -0.2791 0.0357
vn -0.6509 0.7544 -0.0849
vn -0.8607 -0.3522 0.3676
vn -0.1656 -0.5679 0.8063
vn -0.2297 0.9239 -0.3060
vn -0.9926 0.0951 0.0751
vn -0.9778 -0.1987 -0.0662
vn -0.7920 -0.3836 -0.4749
vn -0.9076 0.3933 0.1465
vn -0.3048 0.8851 0.3516
vn -0.2242 -0.5128 -0.8287
vn -0.9743 0.1770 0.1395
vn -0.6062 -0.7893 0.0980
vn -0.9321 -0.3328 0.1431
vn -0.9482 -0.1098 -0.2981
vn -0.9173 0.3960 0.0424
vn -0.2962 0.8311 0.4706
vn -0.9711 0.1675 -0.1702
vn 0.9974 -0.0716 -0.0059
vn -0.2557 0.2934 0.9212
vn -0.9999 0.0056 0.0130
vn 0.0623 -0.0558 -0.9965
vn 0.9997 0.0091 -0.0246
vn -0.0201 -0.0700 0.9973
vn -0.9998 -0.0212 0.0063
vn 0.0626 0.2343 -0.9702
vn -0.7672 0.1135 0.6312
vn -0.4228 0.3652 -0.8294
vn -1.0000 0.0041 0.0080
vn 0.5869 0.2369 -0.7743
vn -0.3944 -0.3112 0.8647
vn 0.9934 -0.0762 -0.0854
vn 0.9569 0.1649 0.2389
vn 0.9555 0.1150 0.2715
vn 0.9745 0.1947 -0.1116
vn 0.6538 0.2269 0.7219
vn 0.9806 -0.1923 0.0380
vn 0.9604 -0.2021 0.1920
vn 0.9622 -0.2501 -0.1079
vn 0.9948 -0.0626 0.0805
vn 0.3221 -0.4238 0.8466
vn 0.3827 -0.9041 -0.1900
vn -0.4186 0.9074 -0.0365
vn 0.2041 0.9370 -0.2835
vn 0.2491 0.9682 0.0229
vn 0.4630 -0.8152 0.3481
vn 0.4504 -0.6892 0.5676
vn 0.6744 -0.7131 0.1917
vn 0.4199 0.7030 -0.5740
vn 0.3076 0.1601 0.9379
vn 0.1667 -0.5542 -0.8155
vn 0.4608 -0.7216 0.5167
vn 0.2580 -0.9220 -0.2887
vn 0.4437 -0.8319 -0.3332
vn 0.2600 0.8381 0.4796
vn 0.2711 0.0921 -0.9581
vn 0.3832 0.8676 -0.3169
vn 0.2507 -0.4784 0.8416
vn 0.4684 0.5014 -0.7275
vn 0.4649 0.6484 0.6029
vn 0.6121 0.5644 0.5539
vn 0.6049 0.5423 -0.5831
vn 0.6531 -0.4409 0.6157
vn 0.9789 0.1899 -0.0761
vn 0.3538 0.2232 -0.9083
vn 0.8528 0.4138 0.3187
vn 0.8125 -0.5334 -0.2353
vn 0.7334 -0.6018 -0.3161
vn 0.6427 -0.5769 0.5041
vn 0.7803 -0.4073 -0.4746
vn 0.2585 0.2240 0.9397
vn 0.8577 0.4772 -0.1913
vn 0.9577 -0.2658 0.1107
vn 0.6688 -0.3737 0.6427
vn 0.8205 -0.4904 0.2937
vn 0.8319 0.5448 0.1060
vn 0.2021 0.9459 -0.2537
vn -0.0248 -0.1436 -0.9893
vn 0.6947 -0.7192 -0.0094
vn 0.7416 -0.3461 0.5747
vn 0.2759 0.5888 0.7598
vn -0.9963 0.0787 -0.0341
vn 0.0576 0.3599 -0.9312
vn -0.9829 -0.1840 -0.0008
vn 0.9962 -0.0108 -0.0864
vn -0.9953 0.0499 0.0825
vn 0.8662 -0.4997 -0.0023
vn 0.0093 0.3742 0.9273
vn 0.9962 0.0838 -0.0245
vn 0.0184 0.5321 0.8465
vn -0.9869 0.1604 -0.0147
vn -0.9058 -0.4237 -0.0041
vn 0.9996 -0.0244 -0.0122
vn -0.9930 0.1165 -0.0204
vn -0.0116 -0.2836 -0.9589
vn 0.8501 -0.5266 -0.0023
vn 0.1424 0.3662 0.9196
vn 0.7725 -0.4312 -0.4661
vn 0.3974 -0.7646 -0.5074
vn 0.2850 0.4312 0.8561
vn 0.9679 0.2478 -0.0424
vn 0.9489 -0.0510 -0.3113
vn 0.9920 0.0664 0.1074
vn 0.9837 -0.0552 -0.1713
vn 0.8885 -0.3108 0.3375
vn 0.9517 -0.2004 0.2325
vn 0.9659 -0.1537 0.2083
vn 0.9135 -0.2955 0.2798
vn 0.9591 -0.2119 -0.1879
vn -0.9993 -0.0151 0.0343
vn 0.9829 0.1695 -0.0719
vn -0.9895 0.0948 0.1093
vn 0.9716 0.2012 -0.1244
vn 0.9947 -0.0147 -0.1021
vn -0.9859 -0.1232 0.1129
vn 0.9350 -0.2685 -0.2318
vn 0.6399 -0.7266 0.2503
vn 0.7965 0.5617 -0.2237
vn 0.4590 0.8850 -0.0774
vn 0.2598 -0.8272 0.4983
vn 0.9828 -0.1830 0.0250
vn 0.9596 -0.2791 0.0357
vn 0.6509 0.7544 -0.0849
vn 0.8607 -0.3522 0.3676
vn 0.1656 -0.5679 0.8063
vn 0.2297 0.9239 -0.3060
vn 0.9926 0.0951 0.0751
vn 0.9778 -0.1987 -0.0662
vn 0.7920 -0.3836 -0.4749
vn 0.9076 0.3933 0.1465
vn 0.3048 0.8851 0.3516
vn 0.2242 -0.5128 -0.8287
vn 0.9743 0.1770 0.1395
vn 0.6062 -0.7893 0.0980
vn 0.9321 -0.3328 0.1431
vn 0.9482 -0.1098 -0.2981
vn 0.9173 0.3960 0.0424
vn 0.2962 0.8311 0.4706
vn 0.9711 0.1675 -0.1702
vn -0.9974 -0.0716 -0.0059
vn 0.2557 0.2934 0.9212
vn 0.9999 0.0056 0.0130
vn -0.0623 -0.0558 -0.9965
vn -0.9997 0.0091 -0.0246
vn 0.0201 -0.0700 0.9973
vn 0.9998 -0.0212 0.0063
vn -0.0626 0.2343 -0.9702
vn 0.7672 0.1135 0.6312
vn 0.4228 0.3652 -0.8294
vn 1.0000 0.0041 0.0080
vn -1.0000 0.0000 0.0000
vn -0.5869 0.2369 -0.7743
vn 0.3944 -0.3112 0.8647
usemtl None
s off
f 66//1 67//1 4//1 2//1
f 99//2 68//2 6//2 95//2
f 110//3 69//3 9//3 106//3
f 69//4 70//4 11//4 9//4
f 70//5 71//5 13//5 11//5
f 94//6 72//6 14//6 90//6
f 72//7 73//7 16//7 14//7
f 73//8 74//8 18//8 16//8
f 74//9 75//9 20//9 18//9
f 23//10 22//10 149//10 151//10
f 25//11 24//11 160//11 158//11
f 27//12 26//12 150//12 148//12
f 29//13 28//13 159//13 161//13
f 98//14 30//14 146//14 241//14
f 33//15 32//15 156//15 154//15
f 34//16 153//16 270//16 119//16
f 97//17 36//17 142//17 242//17
f 39//18 38//18 155//18 157//18
f 26//19 35//19 152//19 150//19
f 36//20 40//20 143//20 142//20
f 34//21 23//21 151//21 153//21
f 104//22 37//22 147//22 249//22
f 32//23 25//23 158//23 156//23
f 109//24 27//24 148//24 255//24
f 28//25 39//25 157//25 159//25
f 41//26 31//26 145//26 144//26
f 93//27 33//27 154//27 234//27
f 76//28 29//28 161//28 217//28
f 92//29 41//29 144//29 235//29
f 91//30 2//30 41//30 92//30
f 75//31 21//31 29//31 76//31
f 90//32 14//32 33//32 93//32
f 2//33 4//33 43//33 42//33
f 19//34 17//34 39//34 28//34
f 106//35 9//35 27//35 109//35
f 16//36 18//36 25//36 32//36
f 101//37 5//37 37//37 104//37
f 12//38 10//38 23//38 34//38
f 3//39 1//39 40//39 36//39
f 11//40 13//40 35//40 26//40
f 17//41 15//41 38//41 39//41
f 96//42 3//42 36//42 97//42
f 71//43 12//43 34//43 77//43
f 14//44 16//44 32//44 33//44
f 95//45 6//45 30//45 98//45
f 21//46 19//46 28//46 29//46
f 118//47 115//47 54//47 56//47
f 18//48 20//48 24//48 25//48
f 10//49 8//49 22//49 23//49
f 84//50 82//50 46//50 49//50
f 4//51 31//51 44//51 43//51
f 31//52 41//52 45//52 44//52
f 41//53 2//53 42//53 45//53
f 48//54 49//54 53//54 52//54
f 82//55 83//55 47//55 46//55
f 85//56 84//56 49//56 48//56
f 83//57 85//57 48//57 47//57
f 50//58 51//58 52//58 53//58
f 47//59 48//59 52//59 51//59
f 49//60 46//60 50//60 53//60
f 46//61 47//61 51//61 50//61
f 55//62 57//62 61//62 59//62
f 115//63 116//63 55//63 54//63
f 116//64 117//64 57//64 55//64
f 117//65 118//65 56//65 57//65
f 61//66 60//66 64//66 65//66
f 54//67 55//67 59//67 58//67
f 57//68 56//68 60//68 61//68
f 56//69 54//69 58//69 60//69
f 62//70 63//70 65//70 64//70
f 60//71 58//71 62//71 64//71
f 59//72 61//72 65//72 63//72
f 58//73 59//73 63//73 62//73
f 13//74 71//74 77//74 35//74
f 20//75 75//75 76//75 24//75
f 24//76 76//76 217//76 160//76
f 35//77 77//77 216//77 152//77
f 19//78 21//78 75//78 74//78
f 17//79 19//79 74//79 73//79
f 15//80 17//80 73//80 72//80
f 91//81 15//81 72//81 94//81
f 10//82 12//82 71//82 70//82
f 8//83 10//83 70//83 69//83
f 108//84 8//84 69//84 110//84
f 96//85 5//85 68//85 99//85
f 1//86 3//86 67//86 66//86
f 43//87 44//87 81//87 80//87
f 44//88 45//88 79//88 81//88
f 42//89 43//89 80//89 78//89
f 45//90 42//90 78//90 79//90
f 89//91 87//91 85//91 83//91
f 87//92 86//92 84//92 85//92
f 88//93 89//93 83//93 82//93
f 86//94 88//94 82//94 84//94
f 79//95 78//95 88//95 86//95
f 78//96 80//96 89//96 88//96
f 81//97 79//97 86//97 87//97
f 80//98 81//98 87//98 89//98
f 2//99 91//99 94//99 66//99
f 1//100 90//100 93//100 40//100
f 15//101 91//101 92//101 38//101
f 38//102 92//102 235//102 155//102
f 40//103 93//103 234//103 143//103
f 66//104 94//104 90//104 1//104
f 3//105 96//105 99//105 67//105
f 4//106 95//106 98//106 31//106
f 5//107 96//107 97//107 37//107
f 37//108 97//108 242//108 147//108
f 31//109 98//109 241//109 145//109
f 67//110 99//110 95//110 4//110
f 5//111 101//111 105//111 68//111
f 108//112 101//112 104//112 107//112
f 6//113 102//113 103//113 30//113
f 30//114 103//114 250//114 146//114
f 107//115 104//115 249//115 258//115
f 68//116 105//116 102//116 6//116
f 22//117 107//117 258//117 149//117
f 8//118 108//118 107//118 22//118
f 101//119 108//119 110//119 105//119
f 102//120 106//120 109//120 103//120
f 103//121 109//121 255//121 250//121
f 105//122 110//122 106//122 102//122
f 26//123 27//123 112//123 114//123
f 11//124 26//124 114//124 113//124
f 9//125 11//125 113//125 111//125
f 27//126 9//126 111//126 112//126
f 114//127 112//127 118//127 117//127
f 113//128 114//128 117//128 116//128
f 111//129 113//129 116//129 115//129
f 112//130 111//130 115//130 118//130
f 120//131 119//131 275//131 276//131
f 216//132 77//132 120//132 269//132
f 77//133 34//133 119//133 120//133
f 269//134 120//134 276//134 273//134
f 119//135 270//135 274//135 275//135
f 206//136 122//136 124//136 207//136
f 245//137 239//137 126//137 208//137
f 260//138 254//138 129//138 209//138
f 209//139 129//139 131//139 210//139
f 210//140 131//140 133//140 211//140
f 238//141 232//141 134//141 212//141
f 212//142 134//142 136//142 213//142
f 213//143 136//143 138//143 214//143
f 214//144 138//144 140//144 215//144
f 163//145 151//145 149//145 162//145
f 165//146 158//146 160//146 164//146
f 167//147 148//147 150//147 166//147
f 169//148 161//148 159//148 168//148
f 244//149 241//149 146//149 170//149
f 173//150 154//150 156//150 172//150
f 174//151 271//151 270//151 153//151
f 243//152 242//152 142//152 176//152
f 179//153 157//153 155//153 178//153
f 166//154 150//154 152//154 175//154
f 176//155 142//155 143//155 180//155
f 174//156 153//156 151//156 163//156
f 252//157 249//157 147//157 177//157
f 172//158 156//158 158//158 165//158
f 259//159 255//159 148//159 167//159
f 168//160 159//160 157//160 179//160
f 181//161 144//161 145//161 171//161
f 237//162 234//162 154//162 173//162
f 218//163 217//163 161//163 169//163
f 236//164 235//164 144//164 181//164
f 233//165 236//165 181//165 122//165
f 215//166 218//166 169//166 141//166
f 232//167 237//167 173//167 134//167
f 122//168 182//168 183//168 124//168
f 139//169 168//169 179//169 137//169
f 254//170 259//170 167//170 129//170
f 136//171 172//171 165//171 138//171
f 247//172 252//172 177//172 125//172
f 132//173 174//173 163//173 130//173
f 123//174 176//174 180//174 121//174
f 131//175 166//175 175//175 133//175
f 137//176 179//176 178//176 135//176
f 240//177 243//177 176//177 123//177
f 211//178 219//178 174//178 132//178
f 134//179 173//179 172//179 136//179
f 239//180 244//180 170//180 126//180
f 141//181 169//181 168//181 139//181
f 268//182 196//182 194//182 265//182
f 138//183 165//183 164//183 140//183
f 130//184 163//184 162//184 128//184
f 226//50 189//50 186//50 224//50
f 124//185 183//185 184//185 171//185
f 171//186 184//186 185//186 181//186
f 181//187 185//187 182//187 122//187
f 188//188 192//188 193//188 189//188
f 224//189 186//189 187//189 225//189
f 227//190 188//190 189//190 226//190
f 225//57 187//57 188//57 227//57
f 190//58 193//58 192//58 191//58
f 187//59 191//59 192//59 188//59
f 189//60 193//60 190//60 186//60
f 186//191 190//191 191//191 187//191
f 195//192 199//192 201//192 197//192
f 265//193 194//193 195//193 266//193
f 266//194 195//194 197//194 267//194
f 267//195 197//195 196//195 268//195
f 201//196 205//196 204//196 200//196
f 194//197 198//197 199//197 195//197
f 197//198 201//198 200//198 196//198
f 196//199 200//199 198//199 194//199
f 202//70 204//70 205//70 203//70
f 200//71 204//71 202//71 198//71
f 199//72 203//72 205//72 201//72
f 198//200 202//200 203//200 199//200
f 133//201 175//201 219//201 211//201
f 140//202 164//202 218//202 215//202
f 164//203 160//203 217//203 218//203
f 175//204 152//204 216//204 219//204
f 139//205 214//205 215//205 141//205
f 137//206 213//206 214//206 139//206
f 135//207 212//207 213//207 137//207
f 233//208 238//208 212//208 135//208
f 130//209 210//209 211//209 132//209
f 128//210 209//210 210//210 130//210
f 257//211 260//211 209//211 128//211
f 240//212 245//212 208//212 125//212
f 121//213 206//213 207//213 123//213
f 183//87 222//87 223//87 184//87
f 184//214 223//214 221//214 185//214
f 182//215 220//215 222//215 183//215
f 185//90 221//90 220//90 182//90
f 231//91 225//91 227//91 229//91
f 229//216 227//216 226//216 228//216
f 230//217 224//217 225//217 231//217
f 228//94 226//94 224//94 230//94
f 221//95 228//95 230//95 220//95
f 220//218 230//218 231//218 222//218
f 223//219 229//219 228//219 221//219
f 222//98 231//98 229//98 223//98
f 122//220 206//220 238//220 233//220
f 121//221 180//221 237//221 232//221
f 135//222 178//222 236//222 233//222
f 178//223 155//223 235//223 236//223
f 180//224 143//224 234//224 237//224
f 206//225 121//225 232//225 238//225
f 123//226 207//226 245//226 240//226
f 124//227 171//227 244//227 239//227
f 125//228 177//228 243//228 240//228
f 177//229 147//229 242//229 243//229
f 171//230 145//230 241//230 244//230
f 207//231 124//231 239//231 245//231
f 125//232 208//232 253//232 247//232
f 257//233 256//233 252//233 247//233
f 126//234 170//234 251//234 248//234
f 170//235 146//235 250//235 251//235
f 256//236 258//236 249//236 252//236
f 208//237 126//237 248//237 253//237
f 162//238 149//238 258//238 256//238
f 128//239 162//239 256//239 257//239
f 247//240 253//240 260//240 257//240
f 248//241 251//241 259//241 254//241
f 251//242 250//242 255//242 259//242
f 253//243 248//243 254//243 260//243
f 166//244 264//244 262//244 167//244
f 131//245 263//245 264//245 166//245
f 129//246 261//246 263//246 131//246
f 167//247 262//247 261//247 129//247
f 264//248 267//248 268//248 262//248
f 263//249 266//249 267//249 264//249
f 261//250 265//250 266//250 263//250
f 262//251 268//251 265//251 261//251
f 272//252 276//252 275//252 271//252
f 216//253 269//253 272//253 219//253
f 219//254 272//254 271//254 174//254
f 276//255 273//255 274//255 275//255
f 269//256 273//256 276//256 272//256
f 271//257 275//257 274//257 270//257
