# Blender v2.79 (sub 0) OBJ File: 'cube_edges.blend'
# www.blender.org
mtllib cube_edges.mtl
o Cube.002
v 0.500000 0.400000 -0.500000
v 0.500000 0.400000 -0.400000
v 0.500000 0.500000 -0.500000
v 0.500000 0.500000 -0.400000
v 0.500000 0.400000 -0.500000
v 0.400000 0.400000 -0.500000
v 0.500000 0.500000 -0.500000
v 0.400000 0.500000 -0.500000
v 0.500000 0.500000 -0.500000
v 0.500000 0.500000 -0.400000
v 0.400000 0.500000 -0.400000
v 0.400000 0.500000 -0.500000
v -0.500000 0.400000 -0.500000
v -0.500000 0.400000 -0.400000
v 0.000000 0.400000 -0.400000
v 0.000000 0.400000 -0.500000
v -0.500000 0.500000 -0.500000
v -0.500000 0.500000 -0.400000
v 0.000000 0.500000 -0.400000
v 0.000000 0.500000 -0.500000
v -0.500000 0.400000 -0.500000
v -0.400000 0.400000 -0.500000
v -0.500000 0.500000 -0.500000
v -0.400000 0.500000 -0.500000
v -0.500000 0.500000 -0.500000
v -0.500000 0.500000 -0.400000
v -0.400000 0.500000 -0.400000
v -0.400000 0.500000 -0.500000
v 0.500000 0.400000 0.500000
v 0.500000 0.400000 0.400000
v 0.500000 0.500000 0.500000
v 0.500000 0.500000 0.400000
v 0.500000 0.400000 0.500000
v 0.500000 0.400000 0.000000
v 0.400000 0.400000 0.000000
v 0.400000 0.400000 0.500000
v 0.500000 0.500000 0.500000
v 0.500000 0.500000 0.000000
v 0.400000 0.500000 0.000000
v 0.400000 0.500000 0.500000
v 0.500000 0.500000 0.500000
v 0.500000 0.500000 0.400000
v 0.400000 0.500000 0.400000
v 0.400000 0.500000 0.500000
v -0.500000 0.400000 0.500000
v -0.500000 0.400000 0.400000
v 0.000000 0.400000 0.400000
v 0.000000 0.400000 0.500000
v -0.500000 0.500000 0.500000
v -0.500000 0.500000 0.400000
v 0.000000 0.500000 0.400000
v 0.000000 0.500000 0.500000
v -0.500000 0.400000 0.500000
v -0.500000 0.400000 0.000000
v -0.400000 0.400000 0.000000
v -0.400000 0.400000 0.500000
v -0.500000 0.500000 0.500000
v -0.500000 0.500000 0.000000
v -0.400000 0.500000 0.000000
v -0.400000 0.500000 0.500000
v -0.500000 0.500000 0.500000
v -0.500000 0.500000 0.400000
v -0.400000 0.500000 0.400000
v -0.400000 0.500000 0.500000
v 0.500000 -0.400000 -0.500000
v 0.500000 -0.400000 -0.400000
v 0.500000 -0.500000 -0.500000
v 0.500000 -0.500000 -0.400000
v 0.500000 -0.400000 -0.500000
v 0.400000 -0.400000 -0.500000
v 0.500000 -0.500000 -0.500000
v 0.400000 -0.500000 -0.500000
v 0.500000 0.000000 -0.500000
v 0.500000 0.000000 -0.400000
v 0.400000 0.000000 -0.400000
v 0.400000 0.000000 -0.500000
v 0.500000 -0.500000 -0.500000
v 0.500000 -0.500000 -0.400000
v 0.400000 -0.500000 -0.400000
v 0.400000 -0.500000 -0.500000
v -0.500000 -0.400000 -0.500000
v -0.500000 -0.400000 -0.400000
v 0.000000 -0.400000 -0.400000
v 0.000000 -0.400000 -0.500000
v -0.500000 -0.500000 -0.500000
v -0.500000 -0.500000 -0.400000
v 0.000000 -0.500000 -0.400000
v 0.000000 -0.500000 -0.500000
v -0.500000 -0.400000 -0.500000
v -0.400000 -0.400000 -0.500000
v -0.500000 -0.500000 -0.500000
v -0.400000 -0.500000 -0.500000
v -0.500000 0.000000 -0.500000
v -0.500000 0.000000 -0.400000
v -0.400000 0.000000 -0.400000
v -0.400000 0.000000 -0.500000
v -0.500000 -0.500000 -0.500000
v -0.500000 -0.500000 -0.400000
v -0.400000 -0.500000 -0.400000
v -0.400000 -0.500000 -0.500000
v 0.500000 -0.400000 0.500000
v 0.500000 -0.400000 0.400000
v 0.500000 -0.500000 0.500000
v 0.500000 -0.500000 0.400000
v 0.500000 -0.400000 0.500000
v 0.500000 -0.400000 0.000000
v 0.400000 -0.400000 0.000000
v 0.400000 -0.400000 0.500000
v 0.500000 -0.500000 0.500000
v 0.500000 -0.500000 0.000000
v 0.400000 -0.500000 0.000000
v 0.400000 -0.500000 0.500000
v 0.500000 0.000000 0.500000
v 0.500000 0.000000 0.400000
v 0.400000 0.000000 0.400000
v 0.400000 0.000000 0.500000
v 0.500000 -0.500000 0.500000
v 0.500000 -0.500000 0.400000
v 0.400000 -0.500000 0.400000
v 0.400000 -0.500000 0.500000
v -0.500000 -0.400000 0.500000
v -0.500000 -0.400000 0.400000
v 0.000000 -0.400000 0.400000
v 0.000000 -0.400000 0.500000
v -0.500000 -0.500000 0.500000
v -0.500000 -0.500000 0.400000
v 0.000000 -0.500000 0.400000
v 0.000000 -0.500000 0.500000
v -0.500000 -0.400000 0.500000
v -0.500000 -0.400000 0.000000
v -0.400000 -0.400000 0.000000
v -0.400000 -0.400000 0.500000
v -0.500000 -0.500000 0.500000
v -0.500000 -0.500000 0.000000
v -0.400000 -0.500000 0.000000
v -0.400000 -0.500000 0.500000
v -0.500000 0.000000 0.500000
v -0.500000 0.000000 0.400000
v -0.400000 0.000000 0.400000
v -0.400000 0.000000 0.500000
v -0.500000 -0.500000 0.500000
v -0.500000 -0.500000 0.400000
v -0.400000 -0.500000 0.400000
v -0.400000 -0.500000 0.500000
vn 0.0000 -1.0000 0.0000
vn 0.0000 1.0000 0.0000
vn 1.0000 0.0000 0.0000
vn -0.0000 -0.0000 1.0000
vn 0.0000 0.0000 -1.0000
vn -1.0000 0.0000 0.0000
usemtl Material.002
s off
f 1//1 2//1 15//1 16//1
f 3//2 20//2 19//2 4//2
f 1//3 3//3 4//3 2//3
f 2//4 4//4 19//4 15//4
f 3//5 1//5 16//5 20//5
f 13//1 16//1 15//1 14//1
f 17//2 18//2 19//2 20//2
f 13//6 14//6 18//6 17//6
f 14//4 15//4 19//4 18//4
f 15//3 16//3 20//3 19//3
f 17//5 20//5 16//5 13//5
f 29//1 48//1 47//1 30//1
f 31//2 32//2 51//2 52//2
f 29//3 30//3 32//3 31//3
f 30//5 47//5 51//5 32//5
f 31//4 52//4 48//4 29//4
f 45//1 46//1 47//1 48//1
f 49//2 52//2 51//2 50//2
f 45//6 49//6 50//6 46//6
f 46//5 50//5 51//5 47//5
f 47//3 51//3 52//3 48//3
f 49//4 45//4 48//4 52//4
f 65//2 84//2 83//2 66//2
f 67//1 68//1 87//1 88//1
f 65//3 66//3 68//3 67//3
f 66//4 83//4 87//4 68//4
f 67//5 88//5 84//5 65//5
f 81//2 82//2 83//2 84//2
f 85//1 88//1 87//1 86//1
f 81//6 85//6 86//6 82//6
f 82//4 86//4 87//4 83//4
f 83//3 87//3 88//3 84//3
f 85//5 81//5 84//5 88//5
f 101//2 102//2 123//2 124//2
f 103//1 128//1 127//1 104//1
f 101//3 103//3 104//3 102//3
f 102//5 104//5 127//5 123//5
f 103//4 101//4 124//4 128//4
f 121//2 124//2 123//2 122//2
f 125//1 126//1 127//1 128//1
f 121//6 122//6 126//6 125//6
f 122//5 123//5 127//5 126//5
f 123//3 124//3 128//3 127//3
f 125//4 128//4 124//4 121//4
usemtl Material
f 5//1 34//1 35//1 6//1
f 7//2 8//2 39//2 38//2
f 5//3 7//3 38//3 34//3
f 35//6 39//6 8//6 6//6
f 7//5 5//5 6//5 8//5
f 21//1 22//1 55//1 54//1
f 23//2 58//2 59//2 24//2
f 21//6 54//6 58//6 23//6
f 55//3 22//3 24//3 59//3
f 23//5 24//5 22//5 21//5
f 33//1 36//1 35//1 34//1
f 37//2 38//2 39//2 40//2
f 33//3 34//3 38//3 37//3
f 34//5 35//5 39//5 38//5
f 35//6 36//6 40//6 39//6
f 37//4 40//4 36//4 33//4
f 53//1 54//1 55//1 56//1
f 57//2 60//2 59//2 58//2
f 53//6 57//6 58//6 54//6
f 54//5 58//5 59//5 55//5
f 55//3 59//3 60//3 56//3
f 57//4 53//4 56//4 60//4
f 69//2 70//2 107//2 106//2
f 71//1 110//1 111//1 72//1
f 69//3 106//3 110//3 71//3
f 107//6 70//6 72//6 111//6
f 71//5 72//5 70//5 69//5
f 89//2 130//2 131//2 90//2
f 91//1 92//1 135//1 134//1
f 89//6 91//6 134//6 130//6
f 131//3 135//3 92//3 90//3
f 91//5 89//5 90//5 92//5
f 105//2 106//2 107//2 108//2
f 109//1 112//1 111//1 110//1
f 105//3 109//3 110//3 106//3
f 106//5 110//5 111//5 107//5
f 107//6 111//6 112//6 108//6
f 109//4 105//4 108//4 112//4
f 129//2 132//2 131//2 130//2
f 133//1 134//1 135//1 136//1
f 129//6 130//6 134//6 133//6
f 130//5 131//5 135//5 134//5
f 131//3 132//3 136//3 135//3
f 133//4 136//4 132//4 129//4
usemtl Material.001
f 9//2 12//2 11//2 10//2
f 73//3 9//3 10//3 74//3
f 74//4 10//4 11//4 75//4
f 75//6 11//6 12//6 76//6
f 9//5 73//5 76//5 12//5
f 25//2 26//2 27//2 28//2
f 93//6 94//6 26//6 25//6
f 94//4 95//4 27//4 26//4
f 95//3 96//3 28//3 27//3
f 25//5 28//5 96//5 93//5
f 41//2 42//2 43//2 44//2
f 113//3 114//3 42//3 41//3
f 114//5 115//5 43//5 42//5
f 115//6 116//6 44//6 43//6
f 41//4 44//4 116//4 113//4
f 61//2 64//2 63//2 62//2
f 137//6 61//6 62//6 138//6
f 138//5 62//5 63//5 139//5
f 139//3 63//3 64//3 140//3
f 61//4 137//4 140//4 64//4
f 73//2 76//2 75//2 74//2
f 77//1 78//1 79//1 80//1
f 73//3 74//3 78//3 77//3
f 74//4 75//4 79//4 78//4
f 75//6 76//6 80//6 79//6
f 77//5 80//5 76//5 73//5
f 93//2 94//2 95//2 96//2
f 97//1 100//1 99//1 98//1
f 93//6 97//6 98//6 94//6
f 94//4 98//4 99//4 95//4
f 95//3 99//3 100//3 96//3
f 97//5 93//5 96//5 100//5
f 113//2 114//2 115//2 116//2
f 117//1 120//1 119//1 118//1
f 113//3 117//3 118//3 114//3
f 114//5 118//5 119//5 115//5
f 115//6 119//6 120//6 116//6
f 117//4 113//4 116//4 120//4
f 137//2 140//2 139//2 138//2
f 141//1 142//1 143//1 144//1
f 137//6 138//6 142//6 141//6
f 138//5 139//5 143//5 142//5
f 139//3 140//3 144//3 143//3
f 141//4 144//4 140//4 137//4
