# Blender v2.79 (sub 0) OBJ File: '8cubes.blend'
# www.blender.org
mtllib 8cubes.mtl
o Cube
v 0.400000 0.200000 -0.400000
v 0.400000 0.200000 -0.200000
v 0.200000 0.200000 -0.200000
v 0.200000 0.200000 -0.400000
v 0.400000 0.400000 -0.400000
v 0.400000 0.400000 -0.200000
v 0.200000 0.400000 -0.200000
v 0.200000 0.400000 -0.400000
v -0.400000 0.200000 -0.400000
v -0.400000 0.200000 -0.200000
v -0.200000 0.200000 -0.200000
v -0.200000 0.200000 -0.400000
v -0.400000 0.400000 -0.400000
v -0.400000 0.400000 -0.200000
v -0.200000 0.400000 -0.200000
v -0.200000 0.400000 -0.400000
v 0.400000 0.200000 0.400000
v 0.400000 0.200000 0.200000
v 0.200000 0.200000 0.200000
v 0.200000 0.200000 0.400000
v 0.400000 0.400000 0.400000
v 0.400000 0.400000 0.200000
v 0.200000 0.400000 0.200000
v 0.200000 0.400000 0.400000
v -0.400000 0.200000 0.400000
v -0.400000 0.200000 0.200000
v -0.200000 0.200000 0.200000
v -0.200000 0.200000 0.400000
v -0.400000 0.400000 0.400000
v -0.400000 0.400000 0.200000
v -0.200000 0.400000 0.200000
v -0.200000 0.400000 0.400000
v 0.400000 -0.200000 -0.400000
v 0.400000 -0.200000 -0.200000
v 0.200000 -0.200000 -0.200000
v 0.200000 -0.200000 -0.400000
v 0.400000 -0.400000 -0.400000
v 0.400000 -0.400000 -0.200000
v 0.200000 -0.400000 -0.200000
v 0.200000 -0.400000 -0.400000
v -0.400000 -0.200000 -0.400000
v -0.400000 -0.200000 -0.200000
v -0.200000 -0.200000 -0.200000
v -0.200000 -0.200000 -0.400000
v -0.400000 -0.400000 -0.400000
v -0.400000 -0.400000 -0.200000
v -0.200000 -0.400000 -0.200000
v -0.200000 -0.400000 -0.400000
v 0.400000 -0.200000 0.400000
v 0.400000 -0.200000 0.200000
v 0.200000 -0.200000 0.200000
v 0.200000 -0.200000 0.400000
v 0.400000 -0.400000 0.400000
v 0.400000 -0.400000 0.200000
v 0.200000 -0.400000 0.200000
v 0.200000 -0.400000 0.400000
v -0.400000 -0.200000 0.400000
v -0.400000 -0.200000 0.200000
v -0.200000 -0.200000 0.200000
v -0.200000 -0.200000 0.400000
v -0.400000 -0.400000 0.400000
v -0.400000 -0.400000 0.200000
v -0.200000 -0.400000 0.200000
v -0.200000 -0.400000 0.400000
vn 0.0000 -1.0000 -0.0000
vn 0.0000 1.0000 -0.0000
vn 1.0000 0.0000 0.0000
vn -0.0000 -0.0000 1.0000
vn -1.0000 -0.0000 -0.0000
vn 0.0000 0.0000 -1.0000
usemtl Material
s off
f 1//1 2//1 3//1 4//1
f 5//2 8//2 7//2 6//2
f 1//3 5//3 6//3 2//3
f 2//4 6//4 7//4 3//4
f 3//5 7//5 8//5 4//5
f 5//6 1//6 4//6 8//6
f 9//1 12//1 11//1 10//1
f 13//2 14//2 15//2 16//2
f 9//5 10//5 14//5 13//5
f 10//4 11//4 15//4 14//4
f 11//3 12//3 16//3 15//3
f 13//6 16//6 12//6 9//6
f 17//1 20//1 19//1 18//1
f 21//2 22//2 23//2 24//2
f 17//3 18//3 22//3 21//3
f 18//6 19//6 23//6 22//6
f 19//5 20//5 24//5 23//5
f 21//4 24//4 20//4 17//4
f 25//1 26//1 27//1 28//1
f 29//2 32//2 31//2 30//2
f 25//5 29//5 30//5 26//5
f 26//6 30//6 31//6 27//6
f 27//3 31//3 32//3 28//3
f 29//4 25//4 28//4 32//4
f 33//2 36//2 35//2 34//2
f 37//1 38//1 39//1 40//1
f 33//3 34//3 38//3 37//3
f 34//4 35//4 39//4 38//4
f 35//5 36//5 40//5 39//5
f 37//6 40//6 36//6 33//6
f 41//2 42//2 43//2 44//2
f 45//1 48//1 47//1 46//1
f 41//5 45//5 46//5 42//5
f 42//4 46//4 47//4 43//4
f 43//3 47//3 48//3 44//3
f 45//6 41//6 44//6 48//6
f 49//2 50//2 51//2 52//2
f 53//1 56//1 55//1 54//1
f 49//3 53//3 54//3 50//3
f 50//6 54//6 55//6 51//6
f 51//5 55//5 56//5 52//5
f 53//4 49//4 52//4 56//4
f 57//2 60//2 59//2 58//2
f 61//1 62//1 63//1 64//1
f 57//5 58//5 62//5 61//5
f 58//6 59//6 63//6 62//6
f 59//3 60//3 64//3 63//3
f 61//4 64//4 60//4 57//4
